<?xml version="1.0" encoding="UTF-8" standalone="no"?>
<!-- Created with Inkscape (http://www.inkscape.org/) -->
<svg id="svg5903" xmlns:rdf="http://www.w3.org/1999/02/22-rdf-syntax-ns#" xmlns="http://www.w3.org/2000/svg" height="478.86" width="1266" version="1.1" xmlns:cc="http://creativecommons.org/ns#" xmlns:dc="http://purl.org/dc/elements/1.1/">
 <metadata id="metadata5908">
  <rdf:RDF>
   <cc:Work rdf:about="">
    <dc:format>image/svg+xml</dc:format>
    <dc:type rdf:resource="http://purl.org/dc/dcmitype/StillImage"/>
    <dc:title/>
   </cc:Work>
  </rdf:RDF>
 </metadata>
 <g id="layer1" transform="translate(-306.30262,35.179213)">
  <g id="g3059" transform="matrix(11.517598,0,0,-11.517598,381.47798,9.036846)">
   <path id="path3061" d="m0,0,0-3.663-2.747,0,0-5.315c0-1.062,0.532-1.595,1.301-1.595h1.446v-3.78h-1.978c-3.484,0-4.549,2.068-4.549,5.258v12.934h3.78v-3.839h2.747z" fill-rule="nonzero" fill="#fab20b"/>
  </g>
  <g id="g3063" transform="matrix(11.517598,0,0,-11.517598,403.58016,174.34433)">
   <path id="path3065" d="m0,0,0,14.353,3.573,0,0-2.719,0.06,0c0.649,1.862,2.038,2.895,3.632,2.895h0.796v-4.016h-0.915c-1.889,0-3.129-1.3-3.129-3.484v-7.029h-4.017z" fill-rule="nonzero" fill="#fab20b"/>
  </g>
  <g id="g3067" transform="matrix(11.517598,0,0,-11.517598,674.65255,158.70923)">
   <path id="path3069" d="m0,0,0,6.912c0,3.721-2.776,6.437-7.087,6.437-3.958,0-7.028-3.071-7.028-7.678,0-3.75,2.421-7.147,6.851-7.147,0.767,0,1.535,0.148,2.393,0.356v3.927c-0.71-0.267-1.33-0.444-2.158-0.444-1.918,0-3.306,1.537-3.306,3.455,0,2.098,1.388,3.751,3.188,3.751,2.069,0,3.368-1.121,3.368-2.835v-6.716-0.025,0.007h3.779z" fill-rule="nonzero" fill="#fab20b"/>
  </g>
  <g id="g3071" transform="matrix(11.517598,0,0,-11.517598,706.96872,174.34433)">
   <path id="path3073" d="m0,0,0,9.923c0,3.13,2.421,4.784,5.935,4.784,3.513,0,5.936-1.654,5.936-4.784v-9.923h-3.78v8.624c0,1.475-0.768,2.303-2.156,2.303-1.389,0-2.156-0.828-2.156-2.303v-8.624h-3.779z" fill-rule="nonzero" fill="#fab20b"/>
  </g>
  <g id="g3075" transform="matrix(11.517598,0,0,-11.517598,868.18164,133.52716)">
   <path id="path3077" d="m0,0,4.873,0c0.708,0,1.062,0.354,1.062,0.798,0,1.801-5.788,2.214-5.788,5.787,0,3.1,2.187,4.224,4.668,4.224h4.547v-3.545h-4.372c-0.471,0-0.944-0.059-0.944-0.648,0-1.3,6.083-2.008,6.083-5.79,0-2.864-2.127-4.37-4.843-4.37h-5.286v3.544z" fill-rule="nonzero" fill="#fab20b"/>
  </g>
  <g id="g3079" transform="matrix(11.517598,0,0,-11.517598,1176.2407,92.035975)">
   <path id="path3081" d="m0,0c0,4.194-2.893,7.56-7.029,7.56-4.193,0-7.087-3.366-7.087-7.56v-10.238c2.157-1.115,3.675-3.279,3.78-5.653v15.92c0,2.097,1.388,3.574,3.367,3.574,1.802,0,3.189-1.477,3.189-3.574,0-2.096-1.387-3.572-3.308-3.572-0.826,0-1.447,0.176-2.037,0.442v-3.986c0.739-0.207,1.507-0.414,2.274-0.414,4.044,0,6.851,3.633,6.851,7.501" fill-rule="nonzero" fill="#fab20b"/>
  </g>
  <g id="g3083" transform="matrix(11.517598,0,0,-11.517598,1390.2076,174.34433)">
   <path id="path3085" d="m0,0,0,14.353,3.573,0,0-2.719,0.061,0c0.648,1.862,2.037,2.895,3.631,2.895h0.797v-4.016h-0.914c-1.89,0-3.13-1.3-3.13-3.484v-7.029h-4.018z" fill-rule="nonzero" fill="#fab20b"/>
  </g>
  <g id="g3087" transform="matrix(11.517598,0,0,-11.517598,1572.2135,9.036846)">
   <path id="path3089" d="m0,0,0-3.663-2.746,0,0-5.315c0-1.062,0.532-1.595,1.298-1.595h1.448v-3.78h-1.977c-3.485,0-4.549,2.068-4.549,5.258v12.934h3.78v-3.839h2.746z" fill-rule="nonzero" fill="#fab20b"/>
  </g>
  <g id="g3091" transform="matrix(11.517598,0,0,-11.517598,1363.6723,91.679022)">
   <path id="path3093" d="m0,0c0,4.104-2.804,7.529-7.264,7.529-4.458,0-7.265-3.425-7.265-7.529s2.807-7.531,7.265-7.531c0.392,0,0.765,0.035,1.13,0.086v1.712h3.74c1.529,1.391,2.394,3.456,2.394,5.733m-3.779,0c0-2.392-1.388-3.751-3.485-3.751s-3.484,1.359-3.484,3.751,1.387,3.749,3.484,3.749,3.485-1.357,3.485-3.749" fill-rule="nonzero" fill="#fab20b"/>
  </g>
  <g id="g3095" transform="matrix(11.517598,0,0,-11.517598,881.88537,287.58406)">
   <path id="path3097" d="m0,0c0-4.104-2.804-7.531-7.263-7.531s-7.265,3.427-7.265,7.531c0,4.105,2.806,7.529,7.265,7.529s7.263-3.424,7.263-7.529m-10.748,0c0-2.393,1.387-3.751,3.485-3.751,2.096,0,3.485,1.358,3.485,3.751,0,2.391-1.389,3.749-3.485,3.749-2.098,0-3.485-1.358-3.485-3.749" fill-rule="nonzero" fill="#231f20"/>
  </g>
  <path id="path3099" d="m1084.6,370.23,43.548,0,0-165.31-43.548,0,0,165.31z" fill-rule="nonzero" fill="#231f20"/>
  <g id="g3101" transform="matrix(11.517598,0,0,-11.517598,1151.9316,329.42418)">
   <path id="path3103" d="m0,0,4.873,0c0.709,0,1.064,0.355,1.064,0.799,0,1.8-5.79,2.213-5.79,5.787,0,3.1,2.187,4.223,4.667,4.223h4.548v-3.544h-4.372c-0.471,0-0.944-0.06-0.944-0.649,0-1.3,6.082-2.009,6.082-5.789,0-2.865-2.124-4.37-4.843-4.37h-5.285v3.543z" fill-rule="nonzero" fill="#231f20"/>
  </g>
  <path id="path3105" d="m1390.6,370.23,43.537,0,0-165.31-43.537,0,0,165.31z" fill-rule="nonzero" fill="#231f20"/>
  <g id="g3107" transform="matrix(11.517598,0,0,-11.517598,1572.2688,248.4726)">
   <path id="path3109" d="m0,0-2.509,0c-2.096,0-3.425-1.417-3.425-3.396,0-1.978,1.329-3.397,3.425-3.397h2.509v-3.779h-2.629c-4.428,0-7.087,2.776-7.087,7.176,0,4.401,2.659,7.177,7.087,7.177h2.629v-3.781z" fill-rule="nonzero" fill="#231f20"/>
  </g>
  <g id="g3111" transform="matrix(11.517598,0,0,-11.517598,674.67107,245.10605)">
   <path id="path3113" d="M0,0,0-5.316c0-1.064,0.532-1.594,1.299-1.594h1.448v-3.78h-1.979c-3.485,0-4.548,2.068-4.548,5.256v12.935h3.78v-7.501z" fill-rule="nonzero" fill="#231f20"/>
  </g>
  <g id="g3115" transform="matrix(11.517598,0,0,-11.517598,918.25316,390.63321)">
   <path id="path3117" d="m0,0c1.536-0.591,2.864-0.828,4.489-0.828,1.801,0,3.809,0.444,3.809,3.072v7.027c0,2.333-1.683,3.367-3.218,3.367-1.862,0-3.219-1.387-3.219-3.454,0-2.068,1.357-3.337,3.219-3.337,0.943,0,1.535,0.176,2.097,0.355v-3.929c-0.769-0.265-1.596-0.383-2.097-0.383-4.371,0-6.999,3.041-6.999,7.235,0,4.193,2.628,7.352,6.999,7.352,3.809,0,6.998-3.159,6.998-6.703v-6.94c0-4.931-2.51-7.44-7.5-7.44-1.535,0-3.131,0.206-4.578,0.737v3.869z" fill-rule="nonzero" fill="#231f20"/>
  </g>
  <g id="g3119" transform="matrix(11.517598,0,0,-11.517598,1368.2067,204.92806)">
   <path id="path3121" d="m0,0,0-3.663-2.746,0,0-5.315c0-1.063,0.53-1.595,1.298-1.595h1.448v-3.78h-1.98c-3.484,0-4.548,2.067-4.548,5.256v13.197h3.782v-4.1h2.746z" fill-rule="nonzero" fill="#231f20"/>
  </g>
 </g>
</svg>
